<svg width="145" height="145" viewBox="0 0 145 145" fill="none" xmlns="http://www.w3.org/2000/svg">
<path d="M107.35 144.96H37.6902C16.8943 144.96 0.0400391 128.098 0.0400391 107.36V37.6678C0.0400391 16.8621 16.8943 0 37.6902 0H107.35C128.146 0 145 16.8621 145 37.6678V107.36C144.932 128.098 128.078 144.96 107.35 144.96Z" fill="#9B8DFC"/>
<path d="M107.35 144.96H37.6902C16.8943 144.96 0.0400391 128.098 0.0400391 107.36V37.6678C0.0400391 16.8621 16.8943 0 37.6902 0H107.35C128.146 0 145 16.8621 145 37.6678V107.36C144.932 128.098 128.078 144.96 107.35 144.96Z" fill="url(#paint0_linear)"/>
<path d="M49.9318 35.536C39.2937 35.536 30.6681 43.9235 30.6681 54.268C30.6681 64.6126 39.2937 73.0001 49.9318 73.0001H60.4262C71.0644 73.0001 79.6899 63.9602 79.6899 53.6623V49.0491H89.1301V53.6623C89.1301 69.0859 76.2397 82.2263 60.3783 82.2263H49.8839C34.0704 82.2263 21.1801 69.6917 21.1801 54.3146C21.1801 38.9376 34.0704 26.3563 49.9318 26.3563V35.536Z" fill="white"/>
<path d="M95.1081 73.0078C105.746 73.0078 114.372 64.6273 114.372 54.2913C114.372 43.9554 105.746 35.5749 95.1081 35.5749H84.6137C74.0235 35.5283 65.3979 43.9554 65.3979 54.2913V58.9006H55.9099V54.2913C55.9099 38.8805 68.8002 26.3563 84.6616 26.3563H95.1081C110.969 26.3563 123.86 38.8805 123.86 54.2913C123.86 69.7021 110.969 82.2263 95.1081 82.2263V73.0078Z" fill="white"/>
<path d="M24.1998 111.866L27.1531 108.297C27.6771 108.828 28.3439 109.31 29.1537 109.696C29.9635 110.13 30.8685 110.323 31.8689 110.323C32.3452 110.323 32.8215 110.226 33.2979 110.033C33.7742 109.84 33.9648 109.455 33.9648 108.876C33.9648 108.394 33.7266 108.008 33.2026 107.67C32.7263 107.332 32.0118 107.043 31.1067 106.754L30.1064 106.416C29.3442 106.175 28.6297 105.789 27.8676 105.355C27.1054 104.921 26.5338 104.342 26.0099 103.667C25.5335 102.992 25.2954 102.123 25.2954 101.159C25.2954 100.001 25.5812 98.9885 26.1051 98.0721C26.6291 97.1557 27.4389 96.4322 28.4868 95.9017C29.5348 95.3712 30.8209 95.13 32.3452 95.13C33.536 95.13 34.584 95.2747 35.489 95.5641C36.3941 95.8535 37.1086 96.1429 37.6802 96.5287C38.2518 96.9146 38.6805 97.2522 38.9663 97.5416L36.4894 100.725C35.8701 100.242 35.2032 99.8566 34.4887 99.5673C33.7742 99.2779 33.0597 99.1332 32.3452 99.1332C31.8689 99.1332 31.4401 99.2296 31.0114 99.4708C30.5827 99.6637 30.3446 100.05 30.3446 100.58C30.3446 101.159 30.5827 101.593 31.1067 101.834C31.6307 102.075 32.2499 102.365 33.0597 102.606L33.9171 102.895C34.5364 103.088 35.1556 103.329 35.7748 103.619C36.3941 103.908 36.9657 104.294 37.5373 104.728C38.0613 105.162 38.49 105.741 38.8234 106.416C39.1569 107.091 39.2998 107.911 39.2998 108.876C39.2998 109.985 38.9663 110.998 38.2995 111.914C37.6326 112.783 36.7275 113.506 35.6319 113.988C34.5364 114.471 33.2502 114.76 31.8689 114.76C30.0588 114.76 28.5345 114.519 27.296 113.988C26.1051 113.313 25.0572 112.686 24.1998 111.866Z" fill="white"/>
<path d="M42.5642 109.089V105.308H40.8099V101.85H42.5642V96.6399H46.8185V101.85H49.2746L50.8097 105.308H46.8185V109.688C46.8185 110.702 47.301 111.21 48.222 111.21C48.4852 111.21 48.7483 111.164 49.0115 111.025C49.2746 110.887 49.4939 110.749 49.7132 110.61L51.3799 113.377C50.8536 113.838 50.2395 114.161 49.5817 114.391C48.9238 114.622 48.2659 114.76 47.5641 114.76C46.2922 114.76 45.2835 114.529 44.5379 114.022C43.7923 113.515 43.3098 112.87 43.0028 111.993C42.6958 111.21 42.5642 110.195 42.5642 109.089Z" fill="white"/>
<path d="M52.5215 118.134L54.1993 115.083C54.4323 115.268 54.7586 115.407 55.0382 115.546C55.3644 115.684 55.644 115.731 55.8771 115.731C56.2965 115.731 56.6228 115.638 56.9024 115.5C57.182 115.361 57.415 114.991 57.6015 114.529L57.9743 113.512L52.1487 101.17H57.2752L59.9783 108.381L62.5416 101.17H67.2487L62.2153 113.466C61.8891 114.205 61.5629 114.945 61.2366 115.638C60.9104 116.332 60.5376 116.979 60.1181 117.533C59.6987 118.088 59.186 118.504 58.5336 118.828C57.8811 119.151 57.1354 119.29 56.2033 119.29C55.5508 119.29 54.8984 119.197 54.2925 119.013C53.6866 118.828 53.0808 118.55 52.5215 118.134Z" fill="white"/>
<path d="M69.4998 114.76V96.6399H74.5497V110.513H81.5798V114.76H69.4998Z" fill="white"/>
<path d="M84.6001 114.76V101.17H89.1301V114.76H84.6001Z" fill="white"/>
<path d="M107.25 114.76V101.17H111.827V105.398L115.602 101.17H120.698L115.791 106.858L120.84 114.76H115.555L112.724 110.18L111.827 111.186V114.76H107.25Z" fill="white"/>
<path d="M86.8871 95.13C88.2505 95.13 89.1301 96.0182 89.1301 97.395C89.1301 98.7718 88.2505 99.66 86.8871 99.66C85.5237 99.66 84.6001 98.7718 84.6001 97.395C84.6441 96.0182 85.5237 95.13 86.8871 95.13Z" fill="white"/>
<path d="M105.048 103.427C104.603 102.642 104.01 102.151 103.318 101.71C102.626 101.317 101.836 101.17 100.798 101.17C100.452 101.17 100.057 101.219 99.5626 101.317C99.0684 101.415 98.6236 101.611 98.1789 101.857C97.6847 102.102 97.2893 102.446 96.9434 102.887V101.513H92.1498V114.76H96.9434V107.695C96.9434 106.616 97.8329 105.733 98.9201 105.733C99.9579 105.733 100.897 106.518 100.897 107.548C100.897 109.363 100.897 114.76 100.897 114.76H105.74V106.419C105.69 105.193 105.493 104.212 105.048 103.427Z" fill="white"/>
<defs>
<linearGradient id="paint0_linear" x1="128.39" y1="144.96" x2="52.89" y2="36.24" gradientUnits="userSpaceOnUse">
<stop stop-color="#BDB2FE"/>
<stop offset="1" stop-color="#BDB2FE" stop-opacity="0"/>
</linearGradient>
</defs>
</svg>
