<svg width="70" height="30" viewBox="0 0 70 30" fill="none" xmlns="http://www.w3.org/2000/svg">
<g clip-path="url(#clip0_914_1008)">
<rect x="0.5" y="0.5" width="69" height="29" rx="14.5" fill="#F5F5F5" stroke="#999999"/>
<path d="M20.0539 9.944V15.944H21.6499V9.944H20.0539ZM21.0139 12.32V13.616H23.1259V12.32H21.0139ZM14.3059 16.388V17.54H20.0779V18.128H14.3299V20.216H15.9139V19.208H21.6499V16.388H14.3059ZM14.3299 19.82V20.996H21.9739V19.82H14.3299ZM12.9019 10.772V11.972H19.4419V10.772H12.9019ZM16.1779 12.236C14.5219 12.236 13.4419 12.944 13.4419 14.06C13.4419 15.176 14.5219 15.86 16.1779 15.86C17.8219 15.86 18.9019 15.176 18.9019 14.06C18.9019 12.944 17.8219 12.236 16.1779 12.236ZM16.1779 13.352C16.9219 13.352 17.3779 13.592 17.3779 14.06C17.3779 14.504 16.9219 14.744 16.1779 14.744C15.4339 14.744 14.9779 14.504 14.9779 14.06C14.9779 13.592 15.4339 13.352 16.1779 13.352ZM15.3739 9.872V11.624H16.9699V9.872H15.3739ZM31.5729 9.968V17.948H33.1809V9.968H31.5729ZM25.7769 19.604V20.876H33.4569V19.604H25.7769ZM25.7769 17.144V20.12H27.3729V17.144H25.7769ZM27.1329 10.664C25.4289 10.664 24.1089 11.84 24.1089 13.484C24.1089 15.116 25.4289 16.304 27.1329 16.304C28.8369 16.304 30.1449 15.116 30.1449 13.484C30.1449 11.84 28.8369 10.664 27.1329 10.664ZM27.1329 12.044C27.9489 12.044 28.5849 12.572 28.5849 13.484C28.5849 14.384 27.9489 14.912 27.1329 14.912C26.3049 14.912 25.6689 14.384 25.6689 13.484C25.6689 12.572 26.3049 12.044 27.1329 12.044ZM37.488 14.876V17.012H39.072V14.876H37.488ZM40.956 14.876V17.012H42.54V14.876H40.956ZM40.008 10.064C37.464 10.064 35.988 10.724 35.988 11.948C35.988 13.172 37.464 13.844 40.008 13.844C42.54 13.844 44.028 13.172 44.028 11.948C44.028 10.724 42.54 10.064 40.008 10.064ZM40.008 11.228C41.616 11.228 42.372 11.456 42.372 11.948C42.372 12.464 41.616 12.68 40.008 12.68C38.4 12.68 37.644 12.464 37.644 11.948C37.644 11.456 38.4 11.228 40.008 11.228ZM34.98 14.288V15.536H45.024V14.288H34.98ZM36.132 16.304V17.492H42.24V18.056H36.144V20.144H37.716V19.16H43.812V16.304H36.132ZM36.144 19.796V20.996H44.1V19.796H36.144ZM50.2311 10.244V10.592C50.2311 11.852 48.9831 13.22 46.5231 13.568L47.1231 14.816C49.9551 14.384 51.5991 12.644 51.5991 10.592V10.244H50.2311ZM50.4951 10.244V10.592C50.4951 12.62 52.1391 14.36 54.9711 14.78L55.5591 13.532C53.1111 13.196 51.8631 11.816 51.8631 10.592V10.244H50.4951ZM46.0191 15.416V16.688H56.0751V15.416H46.0191ZM50.3751 16.22V18.56H51.9831V16.22H50.3751ZM47.1831 19.604V20.876H54.9711V19.604H47.1831ZM47.1831 17.624V20H48.7671V17.624H47.1831Z" fill="#999999"/>
</g>
<defs>
<clipPath id="clip0_914_1008">
<rect width="70" height="30" fill="white"/>
</clipPath>
</defs>
</svg>
