<svg width="70" height="30" viewBox="0 0 70 30" fill="none" xmlns="http://www.w3.org/2000/svg">
<g clip-path="url(#clip0_914_1005)">
<rect x="0.5" y="0.5" width="69" height="29" rx="14.5" fill="#F5F5F5" stroke="#999999"/>
<path d="M17.0899 10.28V10.796C17.0899 12.104 15.8299 13.556 13.2739 13.892L13.8979 15.176C16.8139 14.744 18.4939 12.932 18.4939 10.796V10.28H17.0899ZM17.3899 10.28V10.796C17.3899 12.932 19.0699 14.744 21.9859 15.176L22.5979 13.892C20.0539 13.556 18.7819 12.092 18.7819 10.796V10.28H17.3899ZM17.1019 17V21.068H18.6859V17H17.1019ZM12.9139 15.992V17.288H22.9579V15.992H12.9139ZM25.5969 17V18.26H31.5729V21.068H33.1809V17H25.5969ZM31.5729 9.956V16.472H33.1809V9.956H31.5729ZM27.1329 10.556C25.4049 10.556 24.1089 11.696 24.1089 13.28C24.1089 14.864 25.4049 15.992 27.1329 15.992C28.8489 15.992 30.1449 14.864 30.1449 13.28C30.1449 11.696 28.8489 10.556 27.1329 10.556ZM27.1329 11.912C27.9729 11.912 28.5849 12.404 28.5849 13.28C28.5849 14.156 27.9729 14.66 27.1329 14.66C26.2929 14.66 25.6689 14.156 25.6689 13.28C25.6689 12.404 26.2929 11.912 27.1329 11.912ZM36.216 10.448V11.72H43.26V10.448H36.216ZM34.992 14.444V15.716H45.048V14.444H34.992ZM42.3 10.448V11.336C42.3 12.284 42.3 13.304 41.952 14.744L43.536 14.768C43.872 13.328 43.872 12.296 43.872 11.336V10.448H42.3ZM36.168 16.88V20.948H43.824V16.88H36.168ZM42.252 18.116V19.688H37.728V18.116H42.252ZM50.2311 10.244V10.592C50.2311 11.852 48.9831 13.22 46.5231 13.568L47.1231 14.816C49.9551 14.384 51.5991 12.644 51.5991 10.592V10.244H50.2311ZM50.4951 10.244V10.592C50.4951 12.62 52.1391 14.36 54.9711 14.78L55.5591 13.532C53.1111 13.196 51.8631 11.816 51.8631 10.592V10.244H50.4951ZM46.0191 15.416V16.688H56.0751V15.416H46.0191ZM50.3751 16.22V18.56H51.9831V16.22H50.3751ZM47.1831 19.604V20.876H54.9711V19.604H47.1831ZM47.1831 17.624V20H48.7671V17.624H47.1831Z" fill="#999999"/>
</g>
<defs>
<clipPath id="clip0_914_1005">
<rect width="70" height="30" fill="white"/>
</clipPath>
</defs>
</svg>
