<svg width="70" height="30" viewBox="0 0 70 30" fill="none" xmlns="http://www.w3.org/2000/svg">
<g clip-path="url(#clip0_914_987)">
<rect width="70" height="30" rx="15" fill="#A37BFF"/>
<path d="M20.5339 9.968V18.068H22.1419V9.968H20.5339ZM14.7379 19.604V20.876H22.4179V19.604H14.7379ZM14.7379 17.288V20.264H16.3339V17.288H14.7379ZM15.5059 10.568V11.648C15.5059 13.124 14.7259 14.672 12.8659 15.308L13.6699 16.58C15.8299 15.824 16.8259 13.82 16.8259 11.648V10.568H15.5059ZM15.8299 10.568V11.648C15.8299 13.796 16.8019 15.68 18.9019 16.388L19.7179 15.116C17.8939 14.528 17.1379 13.1 17.1379 11.648V10.568H15.8299ZM26.3769 10.556V11.54C26.3769 13.052 25.6209 14.54 23.7609 15.164L24.6129 16.424C26.7249 15.692 27.6849 13.748 27.6849 11.54V10.556H26.3769ZM26.7009 10.556V11.696C26.7009 13.7 27.6489 15.428 29.6529 16.1L30.4809 14.864C28.7409 14.324 27.9969 13.028 27.9969 11.696V10.556H26.7009ZM31.0929 9.956V16.52H32.6889V9.956H31.0929ZM32.2449 12.524V13.844H34.1649V12.524H32.2449ZM29.0649 16.772C26.7489 16.772 25.2969 17.576 25.2969 18.92C25.2969 20.276 26.7489 21.068 29.0649 21.068C31.3689 21.068 32.8209 20.276 32.8209 18.92C32.8209 17.576 31.3689 16.772 29.0649 16.772ZM29.0649 18.008C30.4809 18.008 31.2369 18.308 31.2369 18.92C31.2369 19.544 30.4809 19.832 29.0649 19.832C27.6489 19.832 26.8809 19.544 26.8809 18.92C26.8809 18.308 27.6489 18.008 29.0649 18.008ZM39.204 16.064V17.756H40.8V16.064H39.204ZM34.98 15.152V16.412H45.024V15.152H34.98ZM35.856 10.256V11.528H44.136V10.256H35.856ZM35.94 13.196V14.468H44.052V13.196H35.94ZM37.272 10.724V14.024H38.868V10.724H37.272ZM41.124 10.724V14.024H42.72V10.724H41.124ZM36.144 17.336V20.948H43.824V17.336H36.144ZM42.264 18.572V19.688H37.716V18.572H42.264ZM50.2311 10.244V10.592C50.2311 11.852 48.9831 13.22 46.5231 13.568L47.1231 14.816C49.9551 14.384 51.5991 12.644 51.5991 10.592V10.244H50.2311ZM50.4951 10.244V10.592C50.4951 12.62 52.1391 14.36 54.9711 14.78L55.5591 13.532C53.1111 13.196 51.8631 11.816 51.8631 10.592V10.244H50.4951ZM46.0191 15.416V16.688H56.0751V15.416H46.0191ZM50.3751 16.22V18.56H51.9831V16.22H50.3751ZM47.1831 19.604V20.876H54.9711V19.604H47.1831ZM47.1831 17.624V20H48.7671V17.624H47.1831Z" fill="white"/>
</g>
<defs>
<clipPath id="clip0_914_987">
<rect width="70" height="30" fill="white"/>
</clipPath>
</defs>
</svg>
