<svg width="374" height="107" viewBox="0 0 374 107" fill="none" xmlns="http://www.w3.org/2000/svg">
<path d="M59.8358 106.543H20.9937C9.39789 106.543 0 97.145 0 85.5871V46.745C0 35.1492 9.39789 25.7513 20.9937 25.7513H59.8358C71.4316 25.7513 80.8295 35.1492 80.8295 46.745V85.5871C80.7916 97.145 71.3937 106.543 59.8358 106.543Z" fill="#EEEEEE"/>
<path d="M56.0464 94.5683H24.7454C17.697 94.5683 11.9749 88.8462 11.9749 81.7978V50.4967C11.9749 43.4483 17.697 37.7262 24.7454 37.7262H56.0464C63.0948 37.7262 68.817 43.4483 68.817 50.4967V81.7978C68.817 88.8462 63.0948 94.5683 56.0464 94.5683Z" fill="white"/>
<path d="M40.3959 79.5996C47.8255 79.5996 53.8485 73.5766 53.8485 66.147C53.8485 58.7173 47.8255 52.6943 40.3959 52.6943C32.9662 52.6943 26.9432 58.7173 26.9432 66.147C26.9432 73.5766 32.9662 79.5996 40.3959 79.5996Z" stroke="#C1C1C1" stroke-width="2" stroke-miterlimit="10" stroke-linecap="round" stroke-linejoin="round"/>
<path d="M56.4632 53.3763C58.2003 53.3763 59.6085 51.9682 59.6085 50.2311C59.6085 48.494 58.2003 47.0858 56.4632 47.0858C54.7261 47.0858 53.3179 48.494 53.3179 50.2311C53.3179 51.9682 54.7261 53.3763 56.4632 53.3763Z" stroke="#C1C1C1" stroke-width="2" stroke-miterlimit="10" stroke-linecap="round" stroke-linejoin="round"/>
<path d="M157.396 80.7916H118.554C106.959 80.7916 97.5606 71.3937 97.5606 59.8358V20.9937C97.5606 9.3979 106.959 0 118.554 0H157.396C168.992 0 178.39 9.3979 178.39 20.9937V59.8358C178.352 71.3937 168.954 80.7916 157.396 80.7916Z" fill="#EEEEEE"/>
<path d="M166.984 37.2127C166.984 23.5327 153.986 12.4674 137.956 12.4674C121.927 12.4674 108.929 23.5327 108.929 37.2127C108.929 49.0358 118.706 58.9263 131.742 61.3895L137.994 68.3621L144.247 61.3895C157.245 58.9263 166.984 49.0358 166.984 37.2127Z" fill="white"/>
<path d="M134.546 34.8254C133.561 33.0822 131.742 31.9075 129.695 31.9075C126.55 31.9075 124.011 34.598 124.011 37.9706C124.011 41.3433 126.55 44.0338 129.695 44.0338C131.78 44.0338 133.561 42.8591 134.546 41.1159" stroke="#C1C1C1" stroke-width="2" stroke-miterlimit="10" stroke-linecap="round" stroke-linejoin="round"/>
<path d="M149.666 32.2483V43.6167" stroke="#C1C1C1" stroke-width="2" stroke-miterlimit="10" stroke-linecap="round" stroke-linejoin="round"/>
<path d="M140.42 32.2483V43.6167" stroke="#C1C1C1" stroke-width="2" stroke-miterlimit="10" stroke-linecap="round" stroke-linejoin="round"/>
<path d="M140.457 37.9326H149.666" stroke="#C1C1C1" stroke-width="2" stroke-miterlimit="10" stroke-linecap="round" stroke-linejoin="round"/>
<path d="M254.98 80.7916H216.138C204.542 80.7916 195.144 71.3937 195.144 59.8358V20.9937C195.144 9.3979 204.542 0 216.138 0H254.98C266.576 0 275.974 9.3979 275.974 20.9937V59.8358C275.936 71.3937 266.538 80.7916 254.98 80.7916Z" fill="#EEEEEE"/>
<path d="M261.65 26.261C261.65 20.9557 257.368 16.6736 252.062 16.6736H219.056C213.751 16.6736 209.469 20.9557 209.469 26.261V48.7325C209.469 54.0378 213.751 58.3199 219.056 58.3199H230.045L235.275 64.1557L240.504 58.3199H252.062C257.368 58.3199 261.65 54.0378 261.65 48.7325V26.261Z" fill="white"/>
<path d="M230.993 31.3011V42.2906" stroke="#C1C1C1" stroke-width="2" stroke-miterlimit="10" stroke-linecap="round" stroke-linejoin="round"/>
<path d="M238.382 42.897C240.14 42.897 241.565 41.4718 241.565 39.7138C241.565 37.9558 240.14 36.5306 238.382 36.5306C236.624 36.5306 235.199 37.9558 235.199 39.7138C235.199 41.4718 236.624 42.897 238.382 42.897Z" stroke="#C1C1C1" stroke-width="2" stroke-miterlimit="10" stroke-linecap="round" stroke-linejoin="round"/>
<path d="M219.549 42.2906H223.906C225.574 42.2906 226.938 40.9264 226.938 39.259C226.938 37.5917 225.574 36.2275 223.906 36.2275H223.262C224.626 36.2275 225.725 35.1285 225.725 33.7643C225.725 32.4001 224.626 31.3011 223.262 31.3011H219.549V42.2906Z" stroke="#C1C1C1" stroke-width="2" stroke-miterlimit="10" stroke-linecap="round" stroke-linejoin="round"/>
<path d="M248.879 42.897C250.637 42.897 252.062 41.4718 252.062 39.7138C252.062 37.9558 250.637 36.5306 248.879 36.5306C247.121 36.5306 245.696 37.9558 245.696 39.7138C245.696 41.4718 247.121 42.897 248.879 42.897Z" stroke="#C1C1C1" stroke-width="2" stroke-miterlimit="10" stroke-linecap="round" stroke-linejoin="round"/>
<path d="M252.062 36.5306V44.1854C252.062 45.6633 250.812 46.838 249.069 46.838" stroke="#C1C1C1" stroke-width="2" stroke-miterlimit="10" stroke-linecap="round" stroke-linejoin="round"/>
<path d="M219.776 36.2653H223.414" stroke="#C1C1C1" stroke-width="2" stroke-miterlimit="10" stroke-linecap="round" stroke-linejoin="round"/>
<path d="M352.564 106.543H313.722C302.126 106.543 292.728 97.145 292.728 85.5871V46.745C292.728 35.1492 302.126 25.7513 313.722 25.7513H352.564C364.159 25.7513 373.557 35.1492 373.557 46.745V85.5871C373.519 97.145 364.122 106.543 352.564 106.543Z" fill="#EEEEEE"/>
<path d="M333.124 45.4565C341.839 45.4565 347.258 45.7597 351.844 46.7071C354.686 47.3134 356.846 48.2986 358.513 49.9281C360.18 51.5955 360.976 54.286 361.166 56.7871C361.242 58.0755 361.279 62.2818 361.279 66.1092C361.279 70.2776 361.242 74.0671 361.166 75.4313C361.014 77.9323 360.18 80.6229 358.513 82.2902C356.846 83.9576 354.686 84.9429 351.844 85.5113C347.258 86.4586 341.839 86.7618 333.124 86.7618C324.408 86.7618 318.989 86.4586 314.404 85.5113C311.562 84.905 309.402 83.9197 307.734 82.2902C306.067 80.6229 305.271 77.9323 305.082 75.4313C305.006 74.0292 304.968 70.2397 304.968 66.1092C304.968 62.2818 305.006 58.0755 305.082 56.7871C305.233 54.286 306.067 51.5955 307.734 49.9281C309.402 48.2608 311.562 47.2755 314.404 46.7071C318.989 45.7597 324.408 45.4565 333.124 45.4565Z" fill="white"/>
<path d="M342.635 66.1471L328.121 75.3176V56.9766L342.635 66.1471Z" stroke="#C1C1C1" stroke-width="2" stroke-miterlimit="10" stroke-linecap="round" stroke-linejoin="round"/>
</svg>
